ISO-10303-21;
HEADER;
FILE_DESCRIPTION (( 'STEP AP214' ),
    '1' );
FILE_NAME ('bottom.STEP',
    '2026-08-19T20:54:55',
    ( '' ),
    ( '' ),
    'SwSTEP 2.0',
    'SolidWorks 2025',
    '' );
FILE_SCHEMA (( 'AUTOMOTIVE_DESIGN' ));
ENDSEC;

DATA;
#1 = CARTESIAN_POINT ( 'NONE',  ( 139.2499999999999716, 0.000000000000000000, -92.00000000000001421 ) ) ;
#2 = VERTEX_POINT ( 'NONE', #746 ) ;
#3 = DIRECTION ( 'NONE',  ( 0.5773502691896310601, 0.5773502691896151839, 0.5773502691896310601 ) ) ;
#4 = LINE ( 'NONE', #448, #416 ) ;
#5 = ORIENTED_EDGE ( 'NONE', *, *, #96, .T. ) ;
#6 = CARTESIAN_POINT ( 'NONE',  ( 0.5000000000000004441, 0.000000000000000000, -99.50000000000000000 ) ) ;
#7 = EDGE_CURVE ( 'NONE', #108, #530, #752, .T. ) ;
#8 = CYLINDRICAL_SURFACE ( 'NONE', #268, 3.499999999999989342 ) ;
#9 = ORIENTED_EDGE ( 'NONE', *, *, #611, .F. ) ;
#10 = VECTOR ( 'NONE', #125, 1000.000000000000000 ) ;
#11 = CARTESIAN_POINT ( 'NONE',  ( 139.2499999999999716, 2.000000000000000000, -92.00000000000001421 ) ) ;
#12 = AXIS2_PLACEMENT_3D ( 'NONE', #346, #142, #214 ) ;
#13 = CARTESIAN_POINT ( 'NONE',  ( 0.000000000000000000, 2.000000000000000000, 0.000000000000000000 ) ) ;
#14 = ORIENTED_EDGE ( 'NONE', *, *, #272, .F. ) ;
#15 = ADVANCED_FACE ( 'NONE', ( #494, #236 ), #556, .F. ) ;
#16 = DIRECTION ( 'NONE',  ( 0.7071067811865378028, -0.7071067811865573427, 0.000000000000000000 ) ) ;
#17 = FILL_AREA_STYLE_COLOUR ( '', #326 ) ;
#18 = ORIENTED_EDGE ( 'NONE', *, *, #474, .T. ) ;
#19 = DIRECTION ( 'NONE',  ( -0.000000000000000000, 1.000000000000000000, -0.000000000000000000 ) ) ;
#20 = VERTEX_POINT ( 'NONE', #302 ) ;
#21 = ORIENTED_EDGE ( 'NONE', *, *, #449, .T. ) ;
#22 = DIRECTION ( 'NONE',  ( -0.000000000000000000, 1.000000000000000000, -0.000000000000000000 ) ) ;
#23 = VECTOR ( 'NONE', #397, 999.9999999999998863 ) ;
#24 = EDGE_CURVE ( 'NONE', #459, #124, #560, .T. ) ;
#25 = LINE ( 'NONE', #413, #553 ) ;
#26 = VECTOR ( 'NONE', #366, 1000.000000000000000 ) ;
#27 = AXIS2_PLACEMENT_3D ( 'NONE', #398, #590, #797 ) ;
#28 = EDGE_LOOP ( 'NONE', ( #803, #781 ) ) ;
#29 = VERTEX_POINT ( 'NONE', #564 ) ;
#30 = CYLINDRICAL_SURFACE ( 'NONE', #444, 2.300000000000006928 ) ;
#31 = CARTESIAN_POINT ( 'NONE',  ( 144.4999999999999716, 3.500000000000000000, -0.5000000000000281997 ) ) ;
#32 = EDGE_CURVE ( 'NONE', #137, #794, #227, .T. ) ;
#33 = CARTESIAN_POINT ( 'NONE',  ( 145.0000000000000000, 0.4999999999999865663, -100.0000000000000000 ) ) ;
#34 = DIRECTION ( 'NONE',  ( -1.000000000000000000, 0.000000000000000000, -0.000000000000000000 ) ) ;
#35 = ORIENTED_EDGE ( 'NONE', *, *, #474, .F. ) ;
#36 = AXIS2_PLACEMENT_3D ( 'NONE', #13, #270, #789 ) ;
#37 = EDGE_LOOP ( 'NONE', ( #61, #279, #728, #816 ) ) ;
#38 = DIRECTION ( 'NONE',  ( -1.000000000000000000, 0.000000000000000000, 0.000000000000000000 ) ) ;
#39 = VERTEX_POINT ( 'NONE', #240 ) ;
#40 = EDGE_LOOP ( 'NONE', ( #653, #14, #112, #414 ) ) ;
#41 = CARTESIAN_POINT ( 'NONE',  ( 0.000000000000000000, 3.500000000000000000, -100.0000000000000000 ) ) ;
#42 = DIRECTION ( 'NONE',  ( -1.000000000000000000, 0.000000000000000000, 0.000000000000000000 ) ) ;
#43 = DIRECTION ( 'NONE',  ( 0.000000000000000000, 0.000000000000000000, 1.000000000000000000 ) ) ;
#44 = VERTEX_POINT ( 'NONE', #312 ) ;
#45 = DIRECTION ( 'NONE',  ( 0.000000000000000000, 0.000000000000000000, 1.000000000000000000 ) ) ;
#46 = EDGE_CURVE ( 'NONE', #271, #720, #690, .T. ) ;
#47 = AXIS2_PLACEMENT_3D ( 'NONE', #540, #534, #588 ) ;
#48 = CARTESIAN_POINT ( 'NONE',  ( 144.5000000000000000, 0.000000000000000000, 0.000000000000000000 ) ) ;
#49 =( GEOMETRIC_REPRESENTATION_CONTEXT ( 3 ) GLOBAL_UNCERTAINTY_ASSIGNED_CONTEXT ( ( #482 ) ) GLOBAL_UNIT_ASSIGNED_CONTEXT ( ( #304, #554, #672 ) ) REPRESENTATION_CONTEXT ( 'NONE', 'WORKASPACE' ) );
#50 = ORIENTED_EDGE ( 'NONE', *, *, #673, .T. ) ;
#51 = AXIS2_PLACEMENT_3D ( 'NONE', #524, #381, #648 ) ;
#52 = CARTESIAN_POINT ( 'NONE',  ( 139.2499999999999716, 2.000000000000000000, -97.80000000000001137 ) ) ;
#53 = CARTESIAN_POINT ( 'NONE',  ( 0.000000000000000000, 2.999999999999985789, -100.0000000000000000 ) ) ;
#54 = VERTEX_POINT ( 'NONE', #741 ) ;
#55 = LINE ( 'NONE', #841, #10 ) ;
#56 = DIRECTION ( 'NONE',  ( 0.000000000000000000, 0.000000000000000000, 1.000000000000000000 ) ) ;
#57 = EDGE_CURVE ( 'NONE', #530, #58, #628, .T. ) ;
#58 = VERTEX_POINT ( 'NONE', #422 ) ;
#59 = PLANE ( 'NONE',  #589 ) ;
#60 = FACE_OUTER_BOUND ( 'NONE', #367, .T. ) ;
#61 = ORIENTED_EDGE ( 'NONE', *, *, #317, .T. ) ;
#62 = AXIS2_PLACEMENT_3D ( 'NONE', #154, #290, #749 ) ;
#63 = EDGE_CURVE ( 'NONE', #539, #29, #762, .T. ) ;
#64 = EDGE_CURVE ( 'NONE', #694, #39, #511, .T. ) ;
#65 =( GEOMETRIC_REPRESENTATION_CONTEXT ( 3 ) GLOBAL_UNCERTAINTY_ASSIGNED_CONTEXT ( ( #544 ) ) GLOBAL_UNIT_ASSIGNED_CONTEXT ( ( #409, #284, #82 ) ) REPRESENTATION_CONTEXT ( 'NONE', 'WORKASPACE' ) );
#66 = CARTESIAN_POINT ( 'NONE',  ( 5.750000000000005329, 0.000000000000000000, -4.500000000000000000 ) ) ;
#67 = CARTESIAN_POINT ( 'NONE',  ( 5.750000000000000000, 2.000000000000000000, -93.20000000000001705 ) ) ;
#68 = ORIENTED_EDGE ( 'NONE', *, *, #791, .T. ) ;
#69 = ADVANCED_FACE ( 'NONE', ( #758, #491, #678, #612 ), #97, .F. ) ;
#70 = CARTESIAN_POINT ( 'NONE',  ( 139.2499999999999716, 0.000000000000000000, -95.50000000000000000 ) ) ;
#71 = DIRECTION ( 'NONE',  ( 0.000000000000000000, 0.000000000000000000, 1.000000000000000000 ) ) ;
#72 = EDGE_LOOP ( 'NONE', ( #480, #649 ) ) ;
#73 = DIRECTION ( 'NONE',  ( 0.7071067811865378028, 0.7071067811865573427, 0.000000000000000000 ) ) ;
#74 = ADVANCED_FACE ( 'NONE', ( #436 ), #693, .F. ) ;
#75 = EDGE_LOOP ( 'NONE', ( #454, #731, #786, #338 ) ) ;
#76 = VECTOR ( 'NONE', #181, 1000.000000000000000 ) ;
#77 = LINE ( 'NONE', #664, #389 ) ;
#78 = VECTOR ( 'NONE', #490, 1000.000000000000000 ) ;
#79 = PLANE ( 'NONE',  #36 ) ;
#80 = VERTEX_POINT ( 'NONE', #631 ) ;
#81 = CARTESIAN_POINT ( 'NONE',  ( 96.66666666666576191, 51.33333333333286674, -51.66666666666578323 ) ) ;
#82 =( NAMED_UNIT ( * ) SI_UNIT ( $, .STERADIAN. ) SOLID_ANGLE_UNIT ( ) );
#83 = ORIENTED_EDGE ( 'NONE', *, *, #261, .T. ) ;
#84 = EDGE_CURVE ( 'NONE', #39, #694, #470, .T. ) ;
#85 = DIRECTION ( 'NONE',  ( 0.000000000000000000, 0.000000000000000000, 1.000000000000000000 ) ) ;
#86 = LINE ( 'NONE', #336, #771 ) ;
#87 = ORIENTED_EDGE ( 'NONE', *, *, #500, .T. ) ;
#88 = AXIS2_PLACEMENT_3D ( 'NONE', #375, #447, #393 ) ;
#89 = CARTESIAN_POINT ( 'NONE',  ( 0.000000000000000000, 0.000000000000000000, 0.000000000000000000 ) ) ;
#90 = AXIS2_PLACEMENT_3D ( 'NONE', #776, #384, #643 ) ;
#91 = VERTEX_POINT ( 'NONE', #829 ) ;
#92 = CARTESIAN_POINT ( 'NONE',  ( 0.000000000000000000, 3.500000000000000000, 0.000000000000000000 ) ) ;
#93 = DIRECTION ( 'NONE',  ( 0.000000000000000000, 1.000000000000000000, -0.000000000000000000 ) ) ;
#94 = DIRECTION ( 'NONE',  ( 0.000000000000000000, 0.000000000000000000, -1.000000000000000000 ) ) ;
#95 = CARTESIAN_POINT ( 'NONE',  ( 5.750000000000005329, 2.000000000000000000, -4.500000000000000000 ) ) ;
#96 = EDGE_CURVE ( 'NONE', #837, #54, #715, .T. ) ;
#97 = PLANE ( 'NONE',  #184 ) ;
#98 = ORIENTED_EDGE ( 'NONE', *, *, #327, .T. ) ;
#99 = PRODUCT_CONTEXT ( 'NONE', #445, 'mechanical' ) ;
#100 = AXIS2_PLACEMENT_3D ( 'NONE', #761, #177, #634 ) ;
#101 = DIRECTION ( 'NONE',  ( 0.000000000000000000, 0.000000000000000000, -1.000000000000000000 ) ) ;
#102 = DIRECTION ( 'NONE',  ( 0.000000000000000000, -1.000000000000000000, 0.000000000000000000 ) ) ;
#103 = AXIS2_PLACEMENT_3D ( 'NONE', #639, #377, #56 ) ;
#104 = VECTOR ( 'NONE', #354, 1000.000000000000000 ) ;
#105 = EDGE_LOOP ( 'NONE', ( #285, #35, #347, #834 ) ) ;
#106 = LINE ( 'NONE', #627, #508 ) ;
#107 = DIRECTION ( 'NONE',  ( -0.000000000000000000, 1.000000000000000000, -0.000000000000000000 ) ) ;
#108 = VERTEX_POINT ( 'NONE', #31 ) ;
#109 = EDGE_CURVE ( 'NONE', #307, #289, #619, .T. ) ;
#110 = CARTESIAN_POINT ( 'NONE',  ( 5.750000000000005329, 0.000000000000000000, -4.500000000000000000 ) ) ;
#111 = CARTESIAN_POINT ( 'NONE',  ( 5.750000000000000000, 0.000000000000000000, -95.50000000000001421 ) ) ;
#112 = ORIENTED_EDGE ( 'NONE', *, *, #438, .T. ) ;
#113 = LINE ( 'NONE', #775, #138 ) ;
#114 = AXIS2_PLACEMENT_3D ( 'NONE', #505, #772, #117 ) ;
#115 = DIRECTION ( 'NONE',  ( 0.000000000000000000, 0.000000000000000000, 1.000000000000000000 ) ) ;
#116 = ORIENTED_EDGE ( 'NONE', *, *, #311, .F. ) ;
#117 = DIRECTION ( 'NONE',  ( 0.000000000000000000, 0.000000000000000000, 1.000000000000000000 ) ) ;
#118 = EDGE_CURVE ( 'NONE', #809, #530, #122, .T. ) ;
#119 = PLANE ( 'NONE',  #51 ) ;
#120 = EDGE_LOOP ( 'NONE', ( #160, #135 ) ) ;
#121 = PLANE ( 'NONE',  #323 ) ;
#122 = LINE ( 'NONE', #773, #282 ) ;
#123 = ADVANCED_FACE ( 'NONE', ( #506 ), #189, .F. ) ;
#124 = VERTEX_POINT ( 'NONE', #836 ) ;
#125 = DIRECTION ( 'NONE',  ( -1.000000000000000000, 0.000000000000000000, 0.000000000000000000 ) ) ;
#126 = CARTESIAN_POINT ( 'NONE',  ( 5.750000000000000000, 0.000000000000000000, -92.00000000000001421 ) ) ;
#127 = EDGE_LOOP ( 'NONE', ( #172, #333 ) ) ;
#128 = AXIS2_PLACEMENT_3D ( 'NONE', #212, #203, #584 ) ;
#129 = CARTESIAN_POINT ( 'NONE',  ( 144.5000000000000000, 0.000000000000000000, -99.50000000000000000 ) ) ;
#130 = CARTESIAN_POINT ( 'NONE',  ( 139.2499999999999716, 0.000000000000000000, -95.50000000000000000 ) ) ;
#131 = ORIENTED_EDGE ( 'NONE', *, *, #787, .T. ) ;
#132 = EDGE_CURVE ( 'NONE', #594, #747, #316, .T. ) ;
#133 = DIRECTION ( 'NONE',  ( 0.000000000000000000, 1.000000000000000000, -0.000000000000000000 ) ) ;
#134 = CARTESIAN_POINT ( 'NONE',  ( 5.750000000000000000, 2.000000000000000000, -92.00000000000001421 ) ) ;
#135 = ORIENTED_EDGE ( 'NONE', *, *, #235, .F. ) ;
#136 = CARTESIAN_POINT ( 'NONE',  ( 144.4999999999999716, 3.500000000000000000, 0.000000000000000000 ) ) ;
#137 = VERTEX_POINT ( 'NONE', #833 ) ;
#138 = VECTOR ( 'NONE', #572, 999.9999999999998863 ) ;
#139 = AXIS2_PLACEMENT_3D ( 'NONE', #294, #156, #558 ) ;
#140 = AXIS2_PLACEMENT_3D ( 'NONE', #616, #163, #567 ) ;
#141 = DIRECTION ( 'NONE',  ( -0.000000000000000000, 1.000000000000000000, -0.000000000000000000 ) ) ;
#142 = DIRECTION ( 'NONE',  ( 0.000000000000000000, 1.000000000000000000, -0.000000000000000000 ) ) ;
#143 = EDGE_CURVE ( 'NONE', #58, #348, #706, .T. ) ;
#144 = ORIENTED_EDGE ( 'NONE', *, *, #711, .F. ) ;
#145 = PLANE ( 'NONE',  #238 ) ;
#146 = DIRECTION ( 'NONE',  ( -0.000000000000000000, 1.000000000000000000, -0.000000000000000000 ) ) ;
#147 = ORIENTED_EDGE ( 'NONE', *, *, #802, .F. ) ;
#148 = DIRECTION ( 'NONE',  ( -0.5773502691896310601, 0.5773502691896151839, 0.5773502691896310601 ) ) ;
#149 = DIRECTION ( 'NONE',  ( -0.000000000000000000, 1.000000000000000000, -0.000000000000000000 ) ) ;
#150 = VERTEX_POINT ( 'NONE', #394 ) ;
#151 = ADVANCED_FACE ( 'NONE', ( #443 ), #324, .T. ) ;
#152 = AXIS2_PLACEMENT_3D ( 'NONE', #70, #783, #460 ) ;
#153 = FACE_OUTER_BOUND ( 'NONE', #249, .T. ) ;
#154 = CARTESIAN_POINT ( 'NONE',  ( 139.2499999999999716, 3.500000000000000000, -95.50000000000000000 ) ) ;
#155 = VERTEX_POINT ( 'NONE', #67 ) ;
#156 = DIRECTION ( 'NONE',  ( 0.000000000000000000, 1.000000000000000000, -0.000000000000000000 ) ) ;
#157 = ADVANCED_FACE ( 'NONE', ( #60 ), #195, .F. ) ;
#158 = CARTESIAN_POINT ( 'NONE',  ( 139.2499999999999716, 0.000000000000000000, -97.80000000000001137 ) ) ;
#159 = DIRECTION ( 'NONE',  ( 0.000000000000000000, 0.000000000000000000, 1.000000000000000000 ) ) ;
#160 = ORIENTED_EDGE ( 'NONE', *, *, #563, .F. ) ;
#161 = DIRECTION ( 'NONE',  ( -0.000000000000000000, -1.000000000000000000, -0.000000000000000000 ) ) ;
#162 = LINE ( 'NONE', #356, #661 ) ;
#163 = DIRECTION ( 'NONE',  ( 0.000000000000000000, 1.000000000000000000, 0.000000000000000000 ) ) ;
#164 = EDGE_LOOP ( 'NONE', ( #583, #565 ) ) ;
#165 = CARTESIAN_POINT ( 'NONE',  ( 139.2499999999999716, 2.000000000000000000, -98.99999999999998579 ) ) ;
#166 = AXIS2_PLACEMENT_3D ( 'NONE', #788, #133, #277 ) ;
#167 = DIRECTION ( 'NONE',  ( -0.000000000000000000, 1.000000000000000000, -0.000000000000000000 ) ) ;
#168 = CARTESIAN_POINT ( 'NONE',  ( 96.33333333333240489, 51.66666666666620955, -48.66666666666757379 ) ) ;
#169 = VECTOR ( 'NONE', #360, 999.9999999999998863 ) ;
#170 = EDGE_CURVE ( 'NONE', #378, #289, #4, .T. ) ;
#171 = AXIS2_PLACEMENT_3D ( 'NONE', #296, #744, #630 ) ;
#172 = ORIENTED_EDGE ( 'NONE', *, *, #682, .T. ) ;
#173 = CARTESIAN_POINT ( 'NONE',  ( 139.2499999999999716, 2.000000000000000000, -95.50000000000000000 ) ) ;
#174 = CARTESIAN_POINT ( 'NONE',  ( 5.750000000000000000, 0.000000000000000000, -93.20000000000001705 ) ) ;
#175 = DIRECTION ( 'NONE',  ( 0.000000000000000000, -0.000000000000000000, -1.000000000000000000 ) ) ;
#176 = EDGE_LOOP ( 'NONE', ( #514, #299, #504, #778 ) ) ;
#177 = DIRECTION ( 'NONE',  ( -0.000000000000000000, 1.000000000000000000, -0.000000000000000000 ) ) ;
#178 = DIRECTION ( 'NONE',  ( -0.000000000000000000, 1.000000000000000000, -0.000000000000000000 ) ) ;
#179 = EDGE_LOOP ( 'NONE', ( #428, #223 ) ) ;
#180 = ADVANCED_FACE ( 'NONE', ( #329 ), #119, .F. ) ;
#181 = DIRECTION ( 'NONE',  ( 1.000000000000000000, 0.000000000000000000, 0.000000000000000000 ) ) ;
#182 = VECTOR ( 'NONE', #828, 1000.000000000000000 ) ;
#183 = DIRECTION ( 'NONE',  ( 0.000000000000000000, 0.000000000000000000, 1.000000000000000000 ) ) ;
#184 = AXIS2_PLACEMENT_3D ( 'NONE', #675, #102, #175 ) ;
#185 = ORIENTED_EDGE ( 'NONE', *, *, #132, .F. ) ;
#186 = AXIS2_PLACEMENT_3D ( 'NONE', #92, #101, #34 ) ;
#187 = CARTESIAN_POINT ( 'NONE',  ( 5.750000000000005329, 3.500000000000000000, -4.500000000000000000 ) ) ;
#188 = EDGE_CURVE ( 'NONE', #2, #155, #660, .T. ) ;
#189 = CYLINDRICAL_SURFACE ( 'NONE', #241, 3.499999999999989342 ) ;
#190 = EDGE_LOOP ( 'NONE', ( #462, #469, #371, #763 ) ) ;
#191 = DIRECTION ( 'NONE',  ( -0.000000000000000000, 1.000000000000000000, -0.000000000000000000 ) ) ;
#192 = CARTESIAN_POINT ( 'NONE',  ( 33.33333333333394677, 36.33333333333300885, -66.66666666666604613 ) ) ;
#193 = ORIENTED_EDGE ( 'NONE', *, *, #387, .T. ) ;
#194 = CARTESIAN_POINT ( 'NONE',  ( 145.0000000000000000, 2.999999999999985789, 0.000000000000000000 ) ) ;
#195 = PLANE ( 'NONE',  #552 ) ;
#196 = CIRCLE ( 'NONE', #549, 2.300000000000006928 ) ;
#197 = ORIENTED_EDGE ( 'NONE', *, *, #46, .T. ) ;
#198 = CIRCLE ( 'NONE', #700, 2.300000000000010481 ) ;
#199 = EDGE_CURVE ( 'NONE', #348, #459, #320, .T. ) ;
#200 = DIRECTION ( 'NONE',  ( 0.000000000000000000, 0.000000000000000000, 1.000000000000000000 ) ) ;
#201 = FACE_OUTER_BOUND ( 'NONE', #321, .T. ) ;
#202 = VERTEX_POINT ( 'NONE', #1 ) ;
#203 = DIRECTION ( 'NONE',  ( 0.000000000000000000, 1.000000000000000000, -0.000000000000000000 ) ) ;
#204 = CARTESIAN_POINT ( 'NONE',  ( 0.000000000000000000, 2.999999999999985789, -100.0000000000000000 ) ) ;
#205 = ORIENTED_EDGE ( 'NONE', *, *, #32, .T. ) ;
#206 = FACE_OUTER_BOUND ( 'NONE', #37, .T. ) ;
#207 = EDGE_CURVE ( 'NONE', #58, #718, #457, .T. ) ;
#208 = CYLINDRICAL_SURFACE ( 'NONE', #798, 2.300000000000006928 ) ;
#209 = ORIENTED_EDGE ( 'NONE', *, *, #839, .T. ) ;
#210 = AXIS2_PLACEMENT_3D ( 'NONE', #719, #531, #200 ) ;
#211 = VECTOR ( 'NONE', #709, 1000.000000000000000 ) ;
#212 = CARTESIAN_POINT ( 'NONE',  ( 5.750000000000000000, 0.000000000000000000, -95.50000000000001421 ) ) ;
#213 = AXIS2_PLACEMENT_3D ( 'NONE', #417, #42, #372 ) ;
#214 = DIRECTION ( 'NONE',  ( 0.000000000000000000, 0.000000000000000000, 1.000000000000000000 ) ) ;
#215 = EDGE_CURVE ( 'NONE', #20, #307, #819, .T. ) ;
#216 = EDGE_LOOP ( 'NONE', ( #374, #5 ) ) ;
#217 = DIRECTION ( 'NONE',  ( 0.000000000000000000, 1.000000000000000000, -0.000000000000000000 ) ) ;
#218 = CARTESIAN_POINT ( 'NONE',  ( 5.750000000000000000, 2.000000000000000000, -95.50000000000001421 ) ) ;
#219 = ORIENTED_EDGE ( 'NONE', *, *, #64, .F. ) ;
#220 = EDGE_LOOP ( 'NONE', ( #738, #21, #723, #760 ) ) ;
#221 = CARTESIAN_POINT ( 'NONE',  ( 0.000000000000000000, 2.000000000000000000, 0.000000000000000000 ) ) ;
#222 = DIRECTION ( 'NONE',  ( 0.000000000000000000, -1.000000000000000000, 0.000000000000000000 ) ) ;
#223 = ORIENTED_EDGE ( 'NONE', *, *, #759, .T. ) ;
#224 = ADVANCED_FACE ( 'NONE', ( #652 ), #332, .T. ) ;
#225 = DIRECTION ( 'NONE',  ( 0.000000000000000000, 0.000000000000000000, -1.000000000000000000 ) ) ;
#226 = DIRECTION ( 'NONE',  ( -0.000000000000000000, 1.000000000000000000, -0.000000000000000000 ) ) ;
#227 = LINE ( 'NONE', #432, #811 ) ;
#228 = VERTEX_POINT ( 'NONE', #260 ) ;
#229 = FACE_OUTER_BOUND ( 'NONE', #370, .T. ) ;
#230 = CARTESIAN_POINT ( 'NONE',  ( 0.5000000000000281997, 3.500000000000000000, 0.000000000000000000 ) ) ;
#231 = ORIENTED_EDGE ( 'NONE', *, *, #527, .T. ) ;
#232 = DIRECTION ( 'NONE',  ( 0.000000000000000000, 0.000000000000000000, 1.000000000000000000 ) ) ;
#233 = ADVANCED_FACE ( 'NONE', ( #520 ), #8, .F. ) ;
#234 = CARTESIAN_POINT ( 'NONE',  ( 145.0000000000000000, 3.500000000000000000, 0.000000000000000000 ) ) ;
#235 = EDGE_CURVE ( 'NONE', #330, #720, #770, .T. ) ;
#236 = FACE_OUTER_BOUND ( 'NONE', #538, .T. ) ;
#237 = ORIENTED_EDGE ( 'NONE', *, *, #650, .F. ) ;
#238 = AXIS2_PLACEMENT_3D ( 'NONE', #283, #73, #800 ) ;
#239 = PLANE ( 'NONE',  #186 ) ;
#240 = CARTESIAN_POINT ( 'NONE',  ( 5.750000000000000000, 3.500000000000000000, -93.20000000000001705 ) ) ;
#241 = AXIS2_PLACEMENT_3D ( 'NONE', #130, #248, #183 ) ;
#242 = AXIS2_PLACEMENT_3D ( 'NONE', #593, #167, #562 ) ;
#243 = ORIENTED_EDGE ( 'NONE', *, *, #46, .F. ) ;
#244 = CYLINDRICAL_SURFACE ( 'NONE', #100, 3.499999999999993339 ) ;
#245 = CARTESIAN_POINT ( 'NONE',  ( 0.000000000000000000, 2.000000000000000000, 0.000000000000000000 ) ) ;
#246 = EDGE_LOOP ( 'NONE', ( #767, #116, #754, #707 ) ) ;
#247 = DIRECTION ( 'NONE',  ( 0.000000000000000000, 1.000000000000000000, -0.000000000000000000 ) ) ;
#248 = DIRECTION ( 'NONE',  ( -0.000000000000000000, 1.000000000000000000, -0.000000000000000000 ) ) ;
#249 = EDGE_LOOP ( 'NONE', ( #193, #351, #399, #466 ) ) ;
#250 = ADVANCED_FACE ( 'NONE', ( #532 ), #208, .F. ) ;
#251 = FACE_OUTER_BOUND ( 'NONE', #386, .T. ) ;
#252 = CIRCLE ( 'NONE', #210, 3.500000000000003109 ) ;
#253 = CARTESIAN_POINT ( 'NONE',  ( 0.5000000000000004441, 0.000000000000000000, 0.000000000000000000 ) ) ;
#254 = ORIENTED_EDGE ( 'NONE', *, *, #787, .F. ) ;
#255 = AXIS2_PLACEMENT_3D ( 'NONE', #218, #541, #655 ) ;
#256 = DIRECTION ( 'NONE',  ( -0.7071067811865376918, -0.7071067811865574537, -0.000000000000000000 ) ) ;
#257 = CARTESIAN_POINT ( 'NONE',  ( 0.000000000000000000, 0.4999999999999865663, 0.000000000000000000 ) ) ;
#258 = ORIENTED_EDGE ( 'NONE', *, *, #7, .F. ) ;
#259 = FACE_OUTER_BOUND ( 'NONE', #105, .T. ) ;
#260 = CARTESIAN_POINT ( 'NONE',  ( 5.750000000000005329, 2.000000000000000000, -7.999999999999992895 ) ) ;
#261 = EDGE_CURVE ( 'NONE', #794, #663, #633, .T. ) ;
#262 = ORIENTED_EDGE ( 'NONE', *, *, #599, .T. ) ;
#263 = CARTESIAN_POINT ( 'NONE',  ( 139.2499999999999716, 0.000000000000000000, -95.50000000000000000 ) ) ;
#264 = CARTESIAN_POINT ( 'NONE',  ( 139.2499999999999716, 0.000000000000000000, -95.50000000000000000 ) ) ;
#265 = MANIFOLD_SOLID_BREP ( 'Chamfer2', #430 ) ;
#266 = CIRCLE ( 'NONE', #166, 2.300000000000010481 ) ;
#267 = ORIENTED_EDGE ( 'NONE', *, *, #327, .F. ) ;
#268 = AXIS2_PLACEMENT_3D ( 'NONE', #264, #178, #440 ) ;
#269 = LINE ( 'NONE', #657, #293 ) ;
#270 = DIRECTION ( 'NONE',  ( 0.000000000000000000, 1.000000000000000000, -0.000000000000000000 ) ) ;
#271 = VERTEX_POINT ( 'NONE', #529 ) ;
#272 = EDGE_CURVE ( 'NONE', #155, #2, #365, .T. ) ;
#273 = EDGE_CURVE ( 'NONE', #2, #694, #405, .T. ) ;
#274 = CARTESIAN_POINT ( 'NONE',  ( 139.2499999999999716, 2.000000000000000000, -95.50000000000000000 ) ) ;
#275 = DIRECTION ( 'NONE',  ( 0.5773502691896310601, -0.5773502691896151839, 0.5773502691896310601 ) ) ;
#276 = ORIENTED_EDGE ( 'NONE', *, *, #764, .F. ) ;
#277 = DIRECTION ( 'NONE',  ( 0.000000000000000000, 0.000000000000000000, 1.000000000000000000 ) ) ;
#278 = CARTESIAN_POINT ( 'NONE',  ( 139.2499999999999716, 0.000000000000000000, -95.50000000000000000 ) ) ;
#279 = ORIENTED_EDGE ( 'NONE', *, *, #673, .F. ) ;
#280 = AXIS2_PLACEMENT_3D ( 'NONE', #274, #217, #85 ) ;
#281 = ORIENTED_EDGE ( 'NONE', *, *, #453, .T. ) ;
#282 = VECTOR ( 'NONE', #71, 1000.000000000000000 ) ;
#283 = CARTESIAN_POINT ( 'NONE',  ( 0.5000000000000004441, 0.000000000000000000, 0.000000000000000000 ) ) ;
#284 =( NAMED_UNIT ( * ) PLANE_ANGLE_UNIT ( ) SI_UNIT ( $, .RADIAN. ) );
#285 = ORIENTED_EDGE ( 'NONE', *, *, #199, .T. ) ;
#286 = DIRECTION ( 'NONE',  ( -1.000000000000000000, 0.000000000000000000, -0.000000000000000000 ) ) ;
#287 = CARTESIAN_POINT ( 'NONE',  ( 0.000000000000000000, 0.4999999999999865663, -100.0000000000000000 ) ) ;
#288 = ADVANCED_FACE ( 'NONE', ( #607 ), #733, .F. ) ;
#289 = VERTEX_POINT ( 'NONE', #536 ) ;
#290 = DIRECTION ( 'NONE',  ( 0.000000000000000000, 1.000000000000000000, -0.000000000000000000 ) ) ;
#291 = CARTESIAN_POINT ( 'NONE',  ( 5.750000000000000000, 2.000000000000000000, -95.50000000000001421 ) ) ;
#292 = ORIENTED_EDGE ( 'NONE', *, *, #449, .F. ) ;
#293 = VECTOR ( 'NONE', #404, 1000.000000000000000 ) ;
#294 = CARTESIAN_POINT ( 'NONE',  ( 5.750000000000005329, 2.000000000000000000, -4.500000000000000000 ) ) ;
#295 = VECTOR ( 'NONE', #582, 999.9999999999998863 ) ;
#296 = CARTESIAN_POINT ( 'NONE',  ( 5.750000000000000000, 0.000000000000000000, -95.50000000000001421 ) ) ;
#297 = AXIS2_PLACEMENT_3D ( 'NONE', #757, #222, #559 ) ;
#298 = DIRECTION ( 'NONE',  ( 0.000000000000000000, 0.000000000000000000, 1.000000000000000000 ) ) ;
#299 = ORIENTED_EDGE ( 'NONE', *, *, #273, .T. ) ;
#300 = DIRECTION ( 'NONE',  ( 0.000000000000000000, 0.000000000000000000, 1.000000000000000000 ) ) ;
#301 = PLANE ( 'NONE',  #297 ) ;
#302 = CARTESIAN_POINT ( 'NONE',  ( 5.750000000000000000, 0.000000000000000000, -92.00000000000001421 ) ) ;
#303 = ORIENTED_EDGE ( 'NONE', *, *, #463, .F. ) ;
#304 =( LENGTH_UNIT ( ) NAMED_UNIT ( * ) SI_UNIT ( .MILLI., .METRE. ) );
#305 = FACE_OUTER_BOUND ( 'NONE', #550, .T. ) ;
#306 = DIRECTION ( 'NONE',  ( 0.000000000000000000, 0.000000000000000000, 1.000000000000000000 ) ) ;
#307 = VERTEX_POINT ( 'NONE', #134 ) ;
#308 = VECTOR ( 'NONE', #322, 1000.000000000000000 ) ;
#309 = AXIS2_PLACEMENT_3D ( 'NONE', #221, #358, #232 ) ;
#310 = LINE ( 'NONE', #637, #76 ) ;
#311 = EDGE_CURVE ( 'NONE', #20, #378, #471, .T. ) ;
#312 = CARTESIAN_POINT ( 'NONE',  ( 139.2499999999999716, 3.500000000000000000, -93.19999999999998863 ) ) ;
#313 = AXIS2_PLACEMENT_3D ( 'NONE', #245, #418, #159 ) ;
#314 = VERTEX_POINT ( 'NONE', #287 ) ;
#315 = FACE_OUTER_BOUND ( 'NONE', #40, .T. ) ;
#316 = LINE ( 'NONE', #253, #810 ) ;
#317 = EDGE_CURVE ( 'NONE', #679, #539, #86, .T. ) ;
#318 = ORIENTED_EDGE ( 'NONE', *, *, #118, .T. ) ;
#319 = LINE ( 'NONE', #714, #363 ) ;
#320 = LINE ( 'NONE', #192, #295 ) ;
#321 = EDGE_LOOP ( 'NONE', ( #488, #587 ) ) ;
#322 = DIRECTION ( 'NONE',  ( -1.000000000000000000, 0.000000000000000000, 0.000000000000000000 ) ) ;
#323 = AXIS2_PLACEMENT_3D ( 'NONE', #328, #256, #455 ) ;
#324 = PLANE ( 'NONE',  #90 ) ;
#325 = ORIENTED_EDGE ( 'NONE', *, *, #385, .F. ) ;
#326 = COLOUR_RGB ( '',0.7921568627450980005, 0.8196078431372548767, 0.9333333333333333481 ) ;
#327 = EDGE_CURVE ( 'NONE', #80, #44, #25, .T. ) ;
#328 = CARTESIAN_POINT ( 'NONE',  ( 144.4999999999999716, 3.500000000000000000, 0.000000000000000000 ) ) ;
#329 = FACE_OUTER_BOUND ( 'NONE', #644, .T. ) ;
#330 = VERTEX_POINT ( 'NONE', #659 ) ;
#331 = DIRECTION ( 'NONE',  ( 0.000000000000000000, 0.000000000000000000, 1.000000000000000000 ) ) ;
#332 = PLANE ( 'NONE',  #755 ) ;
#333 = ORIENTED_EDGE ( 'NONE', *, *, #802, .T. ) ;
#334 = DIRECTION ( 'NONE',  ( 0.000000000000000000, 0.000000000000000000, 1.000000000000000000 ) ) ;
#335 = ADVANCED_FACE ( 'NONE', ( #785, #201 ), #79, .F. ) ;
#336 = CARTESIAN_POINT ( 'NONE',  ( 111.6666666666660319, -32.83333333333304438, -66.66666666666607455 ) ) ;
#337 = VECTOR ( 'NONE', #191, 1000.000000000000000 ) ;
#338 = ORIENTED_EDGE ( 'NONE', *, *, #215, .F. ) ;
#339 = PRODUCT_DEFINITION_FORMATION_WITH_SPECIFIED_SOURCE ( 'ANY', '', #821, .NOT_KNOWN. ) ;
#340 = AXIS2_PLACEMENT_3D ( 'NONE', #291, #570, #452 ) ;
#341 = LINE ( 'NONE', #81, #23 ) ;
#342 = CYLINDRICAL_SURFACE ( 'NONE', #242, 3.500000000000003109 ) ;
#343 = ORIENTED_EDGE ( 'NONE', *, *, #385, .T. ) ;
#344 = PRODUCT_RELATED_PRODUCT_CATEGORY ( 'part', '', ( #821 ) ) ;
#345 = DIRECTION ( 'NONE',  ( 0.000000000000000000, 0.000000000000000000, 1.000000000000000000 ) ) ;
#346 = CARTESIAN_POINT ( 'NONE',  ( 139.2499999999999716, 2.000000000000000000, -95.50000000000000000 ) ) ;
#347 = ORIENTED_EDGE ( 'NONE', *, *, #750, .F. ) ;
#348 = VERTEX_POINT ( 'NONE', #204 ) ;
#349 = CARTESIAN_POINT ( 'NONE',  ( 139.2499999999999716, 0.000000000000000000, -92.00000000000001421 ) ) ;
#350 = DIRECTION ( 'NONE',  ( -0.5773502691896310601, -0.5773502691896151839, 0.5773502691896310601 ) ) ;
#351 = ORIENTED_EDGE ( 'NONE', *, *, #402, .T. ) ;
#352 = VECTOR ( 'NONE', #161, 1000.000000000000000 ) ;
#353 = EDGE_CURVE ( 'NONE', #314, #747, #465, .T. ) ;
#354 = DIRECTION ( 'NONE',  ( -0.000000000000000000, 1.000000000000000000, -0.000000000000000000 ) ) ;
#355 = EDGE_LOOP ( 'NONE', ( #475, #292, #548, #533 ) ) ;
#356 = CARTESIAN_POINT ( 'NONE',  ( 0.000000000000000000, 0.4999999999999865663, -100.0000000000000000 ) ) ;
#357 = DIRECTION ( 'NONE',  ( 0.000000000000000000, 0.000000000000000000, 1.000000000000000000 ) ) ;
#358 = DIRECTION ( 'NONE',  ( 0.000000000000000000, 1.000000000000000000, -0.000000000000000000 ) ) ;
#359 = FACE_BOUND ( 'NONE', #216, .T. ) ;
#360 = DIRECTION ( 'NONE',  ( 0.5773502691896310601, -0.5773502691896151839, 0.5773502691896310601 ) ) ;
#361 = ADVANCED_FACE ( 'NONE', ( #401 ), #342, .F. ) ;
#362 = EDGE_LOOP ( 'NONE', ( #262, #501, #18, #406 ) ) ;
#363 = VECTOR ( 'NONE', #646, 1000.000000000000000 ) ;
#364 = FACE_BOUND ( 'NONE', #179, .T. ) ;
#365 = CIRCLE ( 'NONE', #255, 2.299999999999996270 ) ;
#366 = DIRECTION ( 'NONE',  ( -1.000000000000000000, 0.000000000000000000, 0.000000000000000000 ) ) ;
#367 = EDGE_LOOP ( 'NONE', ( #87, #704, #258, #492 ) ) ;
#368 = ADVANCED_FACE ( 'NONE', ( #692 ), #493, .T. ) ;
#369 = CARTESIAN_POINT ( 'NONE',  ( 5.750000000000005329, 2.000000000000000000, -4.500000000000000000 ) ) ;
#370 = EDGE_LOOP ( 'NONE', ( #806, #656, #197, #671 ) ) ;
#371 = ORIENTED_EDGE ( 'NONE', *, *, #500, .F. ) ;
#372 = DIRECTION ( 'NONE',  ( 0.000000000000000000, 0.000000000000000000, 1.000000000000000000 ) ) ;
#373 = DIRECTION ( 'NONE',  ( 0.000000000000000000, 0.000000000000000000, 1.000000000000000000 ) ) ;
#374 = ORIENTED_EDGE ( 'NONE', *, *, #575, .T. ) ;
#375 = CARTESIAN_POINT ( 'NONE',  ( 5.750000000000005329, 0.000000000000000000, -4.500000000000000000 ) ) ;
#376 = ADVANCED_FACE ( 'NONE', ( #555 ), #425, .F. ) ;
#377 = DIRECTION ( 'NONE',  ( 0.000000000000000000, 1.000000000000000000, -0.000000000000000000 ) ) ;
#378 = VERTEX_POINT ( 'NONE', #814 ) ;
#379 = CARTESIAN_POINT ( 'NONE',  ( 5.750000000000000000, 0.000000000000000000, -95.50000000000001421 ) ) ;
#380 = ADVANCED_FACE ( 'NONE', ( #229 ), #30, .F. ) ;
#381 = DIRECTION ( 'NONE',  ( -1.000000000000000000, 0.000000000000000000, 0.000000000000000000 ) ) ;
#382 = ORIENTED_EDGE ( 'NONE', *, *, #433, .F. ) ;
#383 = LINE ( 'NONE', #765, #337 ) ;
#384 = DIRECTION ( 'NONE',  ( -0.7071067811865376918, 0.7071067811865574537, 0.000000000000000000 ) ) ;
#385 = EDGE_CURVE ( 'NONE', #228, #598, #717, .T. ) ;
#386 = EDGE_LOOP ( 'NONE', ( #580, #790, #665, #237 ) ) ;
#387 = EDGE_CURVE ( 'NONE', #809, #679, #674, .T. ) ;
#388 = CARTESIAN_POINT ( 'NONE',  ( 5.750000000000005329, 2.000000000000000000, -1.000000000000006439 ) ) ;
#389 = VECTOR ( 'NONE', #148, 1000.000000000000114 ) ;
#390 = DIRECTION ( 'NONE',  ( -0.000000000000000000, 1.000000000000000000, -0.000000000000000000 ) ) ;
#391 = ORIENTED_EDGE ( 'NONE', *, *, #143, .T. ) ;
#392 = MECHANICAL_DESIGN_GEOMETRIC_PRESENTATION_REPRESENTATION (  '', ( #727 ), #65 ) ;
#393 = DIRECTION ( 'NONE',  ( 0.000000000000000000, 0.000000000000000000, 1.000000000000000000 ) ) ;
#394 = CARTESIAN_POINT ( 'NONE',  ( 139.2499999999999716, 3.500000000000000000, -97.80000000000001137 ) ) ;
#395 = EDGE_LOOP ( 'NONE', ( #147, #618, #487, #267 ) ) ;
#396 = ADVANCED_FACE ( 'NONE', ( #681 ), #239, .F. ) ;
#397 = DIRECTION ( 'NONE',  ( -0.5773502691896310601, 0.5773502691896151839, 0.5773502691896310601 ) ) ;
#398 = CARTESIAN_POINT ( 'NONE',  ( 5.750000000000000000, 0.000000000000000000, -95.50000000000001421 ) ) ;
#399 = ORIENTED_EDGE ( 'NONE', *, *, #791, .F. ) ;
#400 = DIRECTION ( 'NONE',  ( 0.000000000000000000, 0.000000000000000000, -1.000000000000000000 ) ) ;
#401 = FACE_OUTER_BOUND ( 'NONE', #246, .T. ) ;
#402 = EDGE_CURVE ( 'NONE', #679, #314, #162, .T. ) ;
#403 = ORIENTED_EDGE ( 'NONE', *, *, #735, .T. ) ;
#404 = DIRECTION ( 'NONE',  ( 1.000000000000000000, 0.000000000000000000, 0.000000000000000000 ) ) ;
#405 = LINE ( 'NONE', #597, #104 ) ;
#406 = ORIENTED_EDGE ( 'NONE', *, *, #24, .T. ) ;
#407 = ORIENTED_EDGE ( 'NONE', *, *, #745, .T. ) ;
#408 = CARTESIAN_POINT ( 'NONE',  ( 145.0000000000000000, 0.4999999999999865663, -100.0000000000000000 ) ) ;
#409 =( LENGTH_UNIT ( ) NAMED_UNIT ( * ) SI_UNIT ( .MILLI., .METRE. ) );
#410 = VERTEX_POINT ( 'NONE', #497 ) ;
#411 = ADVANCED_FACE ( 'NONE', ( #305, #359, #818, #364 ), #301, .T. ) ;
#412 = PLANE ( 'NONE',  #617 ) ;
#413 = CARTESIAN_POINT ( 'NONE',  ( 139.2499999999999716, 0.000000000000000000, -93.19999999999998863 ) ) ;
#414 = ORIENTED_EDGE ( 'NONE', *, *, #84, .T. ) ;
#415 = CIRCLE ( 'NONE', #429, 2.300000000000006928 ) ;
#416 = VECTOR ( 'NONE', #585, 1000.000000000000000 ) ;
#417 = CARTESIAN_POINT ( 'NONE',  ( 0.000000000000000000, 3.500000000000000000, 0.000000000000000000 ) ) ;
#418 = DIRECTION ( 'NONE',  ( 0.000000000000000000, 1.000000000000000000, -0.000000000000000000 ) ) ;
#419 = FACE_OUTER_BOUND ( 'NONE', #164, .T. ) ;
#420 = DIRECTION ( 'NONE',  ( -0.000000000000000000, 1.000000000000000000, -0.000000000000000000 ) ) ;
#421 = EDGE_CURVE ( 'NONE', #530, #410, #622, .T. ) ;
#422 = CARTESIAN_POINT ( 'NONE',  ( 0.000000000000000000, 2.999999999999985789, 0.000000000000000000 ) ) ;
#423 = EDGE_LOOP ( 'NONE', ( #276, #568, #281, #209 ) ) ;
#424 = DIRECTION ( 'NONE',  ( 1.000000000000000000, 0.000000000000000000, 0.000000000000000000 ) ) ;
#425 = CYLINDRICAL_SURFACE ( 'NONE', #171, 3.500000000000003109 ) ;
#426 = EDGE_CURVE ( 'NONE', #91, #271, #669, .T. ) ;
#427 = DIRECTION ( 'NONE',  ( -0.000000000000000000, 1.000000000000000000, -0.000000000000000000 ) ) ;
#428 = ORIENTED_EDGE ( 'NONE', *, *, #311, .T. ) ;
#429 = AXIS2_PLACEMENT_3D ( 'NONE', #835, #247, #642 ) ;
#430 = CLOSED_SHELL ( 'NONE', ( #74, #751, #250, #509, #123, #376, #368, #396, #180, #813, #69, #411, #361, #817, #233, #335, #626, #15, #380, #288, #640, #151, #157, #595, #535, #685, #224, #702, #777 ) ) ;
#431 = LINE ( 'NONE', #174, #823 ) ;
#432 = CARTESIAN_POINT ( 'NONE',  ( 139.2499999999999716, 0.000000000000000000, -98.99999999999998579 ) ) ;
#433 = EDGE_CURVE ( 'NONE', #150, #44, #807, .T. ) ;
#434 = ORIENTED_EDGE ( 'NONE', *, *, #453, .F. ) ;
#435 = LINE ( 'NONE', #808, #782 ) ;
#436 = FACE_OUTER_BOUND ( 'NONE', #176, .T. ) ;
#437 = ORIENTED_EDGE ( 'NONE', *, *, #484, .T. ) ;
#438 = EDGE_CURVE ( 'NONE', #155, #39, #431, .T. ) ;
#439 = CARTESIAN_POINT ( 'NONE',  ( 0.000000000000000000, 2.999999999999985789, -100.0000000000000000 ) ) ;
#440 = DIRECTION ( 'NONE',  ( 0.000000000000000000, 0.000000000000000000, 1.000000000000000000 ) ) ;
#441 = ORIENTED_EDGE ( 'NONE', *, *, #96, .F. ) ;
#442 = DIRECTION ( 'NONE',  ( -0.000000000000000000, 1.000000000000000000, -0.000000000000000000 ) ) ;
#443 = FACE_OUTER_BOUND ( 'NONE', #190, .T. ) ;
#444 = AXIS2_PLACEMENT_3D ( 'NONE', #110, #822, #45 ) ;
#445 = APPLICATION_CONTEXT ( 'automotive_design' ) ;
#446 = ORIENTED_EDGE ( 'NONE', *, *, #235, .T. ) ;
#447 = DIRECTION ( 'NONE',  ( 0.000000000000000000, 1.000000000000000000, -0.000000000000000000 ) ) ;
#448 = CARTESIAN_POINT ( 'NONE',  ( 5.750000000000000000, 0.000000000000000000, -99.00000000000001421 ) ) ;
#449 = EDGE_CURVE ( 'NONE', #718, #410, #435, .T. ) ;
#450 = ORIENTED_EDGE ( 'NONE', *, *, #63, .F. ) ;
#451 = DIRECTION ( 'NONE',  ( -1.000000000000000000, 0.000000000000000000, 0.000000000000000000 ) ) ;
#452 = DIRECTION ( 'NONE',  ( 0.000000000000000000, 0.000000000000000000, 1.000000000000000000 ) ) ;
#453 = EDGE_CURVE ( 'NONE', #54, #598, #106, .T. ) ;
#454 = ORIENTED_EDGE ( 'NONE', *, *, #759, .F. ) ;
#455 = DIRECTION ( 'NONE',  ( 0.000000000000000000, 0.000000000000000000, -1.000000000000000000 ) ) ;
#456 = CIRCLE ( 'NONE', #114, 3.499999999999989342 ) ;
#457 = LINE ( 'NONE', #635, #211 ) ;
#458 = AXIS2_PLACEMENT_3D ( 'NONE', #111, #427, #373 ) ;
#459 = VERTEX_POINT ( 'NONE', #486 ) ;
#460 = DIRECTION ( 'NONE',  ( 0.000000000000000000, 0.000000000000000000, 1.000000000000000000 ) ) ;
#461 = DIRECTION ( 'NONE',  ( -0.000000000000000000, 1.000000000000000000, -0.000000000000000000 ) ) ;
#462 = ORIENTED_EDGE ( 'NONE', *, *, #199, .F. ) ;
#463 = EDGE_CURVE ( 'NONE', #636, #150, #740, .T. ) ;
#464 = LINE ( 'NONE', #485, #352 ) ;
#465 = LINE ( 'NONE', #722, #498 ) ;
#466 = ORIENTED_EDGE ( 'NONE', *, *, #625, .T. ) ;
#467 = PLANE ( 'NONE',  #47 ) ;
#468 = DIRECTION ( 'NONE',  ( 0.000000000000000000, 0.000000000000000000, 1.000000000000000000 ) ) ;
#469 = ORIENTED_EDGE ( 'NONE', *, *, #143, .F. ) ;
#470 = CIRCLE ( 'NONE', #140, 2.299999999999996270 ) ;
#471 = CIRCLE ( 'NONE', #27, 3.500000000000003109 ) ;
#472 = LINE ( 'NONE', #732, #603 ) ;
#473 = SURFACE_STYLE_USAGE ( .BOTH. , #477 ) ;
#474 = EDGE_CURVE ( 'NONE', #799, #459, #677, .T. ) ;
#475 = ORIENTED_EDGE ( 'NONE', *, *, #611, .T. ) ;
#476 = CARTESIAN_POINT ( 'NONE',  ( 0.000000000000000000, 0.4999999999999865663, 0.000000000000000000 ) ) ;
#477 = SURFACE_SIDE_STYLE ('',( #725 ) ) ;
#478 = ORIENTED_EDGE ( 'NONE', *, *, #32, .F. ) ;
#479 = DIRECTION ( 'NONE',  ( -0.000000000000000000, -1.000000000000000000, -0.000000000000000000 ) ) ;
#480 = ORIENTED_EDGE ( 'NONE', *, *, #272, .T. ) ;
#481 = AXIS2_PLACEMENT_3D ( 'NONE', #654, #19, #331 ) ;
#482 = UNCERTAINTY_MEASURE_WITH_UNIT (LENGTH_MEASURE( 1.000000000000000082E-05 ), #304, 'distance_accuracy_value', 'NONE');
#483 = AXIS2_PLACEMENT_3D ( 'NONE', #41, #94, #286 ) ;
#484 = EDGE_CURVE ( 'NONE', #314, #718, #319, .T. ) ;
#485 = CARTESIAN_POINT ( 'NONE',  ( 0.000000000000000000, 3.500000000000000000, -100.0000000000000000 ) ) ;
#486 = CARTESIAN_POINT ( 'NONE',  ( 0.5000000000000281997, 3.500000000000000000, -99.49999999999997158 ) ) ;
#487 = ORIENTED_EDGE ( 'NONE', *, *, #433, .T. ) ;
#488 = ORIENTED_EDGE ( 'NONE', *, *, #551, .F. ) ;
#489 = PRODUCT_DEFINITION ( 'UNKNOWN', '', #339, #638 ) ;
#490 = DIRECTION ( 'NONE',  ( -0.000000000000000000, -1.000000000000000000, -0.000000000000000000 ) ) ;
#491 = FACE_BOUND ( 'NONE', #120, .T. ) ;
#492 = ORIENTED_EDGE ( 'NONE', *, *, #599, .F. ) ;
#493 = PLANE ( 'NONE',  #213 ) ;
#494 = FACE_BOUND ( 'NONE', #28, .T. ) ;
#495 = EDGE_LOOP ( 'NONE', ( #131, #632 ) ) ;
#496 = CIRCLE ( 'NONE', #128, 3.500000000000003109 ) ;
#497 = CARTESIAN_POINT ( 'NONE',  ( 145.0000000000000000, 0.4999999999999865663, 0.000000000000000000 ) ) ;
#498 = VECTOR ( 'NONE', #275, 1000.000000000000114 ) ;
#499 = CARTESIAN_POINT ( 'NONE',  ( 5.750000000000005329, 0.000000000000000000, -2.199999999999992628 ) ) ;
#500 = EDGE_CURVE ( 'NONE', #124, #58, #113, .T. ) ;
#501 = ORIENTED_EDGE ( 'NONE', *, *, #650, .T. ) ;
#502 = CARTESIAN_POINT ( 'NONE',  ( 0.000000000000000000, 3.500000000000000000, -99.49999999999997158 ) ) ;
#503 = CARTESIAN_POINT ( 'NONE',  ( 5.750000000000005329, 0.000000000000000000, -4.500000000000000000 ) ) ;
#504 = ORIENTED_EDGE ( 'NONE', *, *, #64, .T. ) ;
#505 = CARTESIAN_POINT ( 'NONE',  ( 139.2499999999999716, 2.000000000000000000, -95.50000000000000000 ) ) ;
#506 = FACE_OUTER_BOUND ( 'NONE', #521, .T. ) ;
#507 = EDGE_LOOP ( 'NONE', ( #478, #254, #407, #826 ) ) ;
#508 = VECTOR ( 'NONE', #226, 1000.000000000000000 ) ;
#509 = ADVANCED_FACE ( 'NONE', ( #510 ), #705, .F. ) ;
#510 = FACE_OUTER_BOUND ( 'NONE', #774, .T. ) ;
#511 = CIRCLE ( 'NONE', #784, 2.299999999999996270 ) ;
#512 = DIRECTION ( 'NONE',  ( 1.000000000000000000, 0.000000000000000000, 0.000000000000000000 ) ) ;
#513 = VECTOR ( 'NONE', #479, 1000.000000000000000 ) ;
#514 = ORIENTED_EDGE ( 'NONE', *, *, #188, .F. ) ;
#515 = DIRECTION ( 'NONE',  ( 0.000000000000000000, 0.000000000000000000, 1.000000000000000000 ) ) ;
#516 = EDGE_CURVE ( 'NONE', #271, #91, #415, .T. ) ;
#517 = DIRECTION ( 'NONE',  ( 0.000000000000000000, 0.000000000000000000, -1.000000000000000000 ) ) ;
#518 = ORIENTED_EDGE ( 'NONE', *, *, #745, .F. ) ;
#519 = FACE_OUTER_BOUND ( 'NONE', #423, .T. ) ;
#520 = FACE_OUTER_BOUND ( 'NONE', #507, .T. ) ;
#521 = EDGE_LOOP ( 'NONE', ( #144, #205, #83, #518 ) ) ;
#522 = DIRECTION ( 'NONE',  ( 0.000000000000000000, 1.000000000000000000, -0.000000000000000000 ) ) ;
#523 = VECTOR ( 'NONE', #420, 1000.000000000000000 ) ;
#524 = CARTESIAN_POINT ( 'NONE',  ( 145.0000000000000000, 3.500000000000000000, 0.000000000000000000 ) ) ;
#525 = VECTOR ( 'NONE', #390, 1000.000000000000000 ) ;
#526 = ORIENTED_EDGE ( 'NONE', *, *, #586, .T. ) ;
#527 = EDGE_CURVE ( 'NONE', #29, #594, #55, .T. ) ;
#528 = FACE_OUTER_BOUND ( 'NONE', #546, .T. ) ;
#529 = CARTESIAN_POINT ( 'NONE',  ( 5.750000000000005329, 2.000000000000000000, -2.199999999999992628 ) ) ;
#530 = VERTEX_POINT ( 'NONE', #194 ) ;
#531 = DIRECTION ( 'NONE',  ( 0.000000000000000000, 1.000000000000000000, -0.000000000000000000 ) ) ;
#532 = FACE_OUTER_BOUND ( 'NONE', #608, .T. ) ;
#533 = ORIENTED_EDGE ( 'NONE', *, *, #527, .F. ) ;
#534 = DIRECTION ( 'NONE',  ( -0.000000000000000000, 0.7071067811865573427, 0.7071067811865378028 ) ) ;
#535 = ADVANCED_FACE ( 'NONE', ( #251 ), #121, .F. ) ;
#536 = CARTESIAN_POINT ( 'NONE',  ( 5.750000000000000000, 2.000000000000000000, -99.00000000000001421 ) ) ;
#537 = CIRCLE ( 'NONE', #280, 2.300000000000010481 ) ;
#538 = EDGE_LOOP ( 'NONE', ( #831, #325 ) ) ;
#539 = VERTEX_POINT ( 'NONE', #129 ) ;
#540 = CARTESIAN_POINT ( 'NONE',  ( 0.000000000000000000, 0.000000000000000000, -99.50000000000000000 ) ) ;
#541 = DIRECTION ( 'NONE',  ( 0.000000000000000000, 1.000000000000000000, -0.000000000000000000 ) ) ;
#542 = EDGE_LOOP ( 'NONE', ( #303, #561, #98, #403 ) ) ;
#543 = APPLICATION_CONTEXT ( 'automotive_design' ) ;
#544 = UNCERTAINTY_MEASURE_WITH_UNIT (LENGTH_MEASURE( 1.000000000000000082E-05 ), #409, 'distance_accuracy_value', 'NONE');
#545 = DIRECTION ( 'NONE',  ( 0.000000000000000000, 0.000000000000000000, 1.000000000000000000 ) ) ;
#546 = EDGE_LOOP ( 'NONE', ( #557, #742, #9, #450 ) ) ;
#547 = DIRECTION ( 'NONE',  ( -0.000000000000000000, 1.000000000000000000, -0.000000000000000000 ) ) ;
#548 = ORIENTED_EDGE ( 'NONE', *, *, #695, .F. ) ;
#549 = AXIS2_PLACEMENT_3D ( 'NONE', #187, #708, #515 ) ;
#550 = EDGE_LOOP ( 'NONE', ( #231, #624, #50, #734 ) ) ;
#551 = EDGE_CURVE ( 'NONE', #663, #794, #456, .T. ) ;
#552 = AXIS2_PLACEMENT_3D ( 'NONE', #703, #579, #512 ) ;
#553 = VECTOR ( 'NONE', #461, 1000.000000000000000 ) ;
#554 =( NAMED_UNIT ( * ) PLANE_ANGLE_UNIT ( ) SI_UNIT ( $, .RADIAN. ) );
#555 = FACE_OUTER_BOUND ( 'NONE', #75, .T. ) ;
#556 = PLANE ( 'NONE',  #313 ) ;
#557 = ORIENTED_EDGE ( 'NONE', *, *, #317, .F. ) ;
#558 = DIRECTION ( 'NONE',  ( 0.000000000000000000, 0.000000000000000000, 1.000000000000000000 ) ) ;
#559 = DIRECTION ( 'NONE',  ( 0.000000000000000000, -0.000000000000000000, -1.000000000000000000 ) ) ;
#560 = LINE ( 'NONE', #230, #827 ) ;
#561 = ORIENTED_EDGE ( 'NONE', *, *, #682, .F. ) ;
#562 = DIRECTION ( 'NONE',  ( 0.000000000000000000, 0.000000000000000000, 1.000000000000000000 ) ) ;
#563 = EDGE_CURVE ( 'NONE', #720, #330, #196, .T. ) ;
#564 = CARTESIAN_POINT ( 'NONE',  ( 144.5000000000000000, 0.000000000000000000, -0.5000000000000003331 ) ) ;
#565 = ORIENTED_EDGE ( 'NONE', *, *, #666, .F. ) ;
#566 = LINE ( 'NONE', #581, #753 ) ;
#567 = DIRECTION ( 'NONE',  ( 0.000000000000000000, 0.000000000000000000, 1.000000000000000000 ) ) ;
#568 = ORIENTED_EDGE ( 'NONE', *, *, #575, .F. ) ;
#569 = LINE ( 'NONE', #697, #182 ) ;
#570 = DIRECTION ( 'NONE',  ( 0.000000000000000000, 1.000000000000000000, -0.000000000000000000 ) ) ;
#571 = ORIENTED_EDGE ( 'NONE', *, *, #84, .F. ) ;
#572 = DIRECTION ( 'NONE',  ( -0.5773502691896310601, -0.5773502691896151839, 0.5773502691896310601 ) ) ;
#573 = CARTESIAN_POINT ( 'NONE',  ( 5.750000000000005329, 3.500000000000000000, -4.500000000000000000 ) ) ;
#574 = ORIENTED_EDGE ( 'NONE', *, *, #695, .T. ) ;
#575 = EDGE_CURVE ( 'NONE', #54, #837, #838, .T. ) ;
#576 = AXIS2_PLACEMENT_3D ( 'NONE', #379, #442, #345 ) ;
#577 = DIRECTION ( 'NONE',  ( -0.000000000000000000, 1.000000000000000000, -0.000000000000000000 ) ) ;
#578 = VECTOR ( 'NONE', #43, 1000.000000000000000 ) ;
#579 = DIRECTION ( 'NONE',  ( 0.000000000000000000, -0.7071067811865574537, -0.7071067811865376918 ) ) ;
#580 = ORIENTED_EDGE ( 'NONE', *, *, #7, .T. ) ;
#581 = CARTESIAN_POINT ( 'NONE',  ( 96.66666666666576191, -47.83333333333289517, -48.33333333333422388 ) ) ;
#582 = DIRECTION ( 'NONE',  ( 0.5773502691896310601, 0.5773502691896151839, 0.5773502691896310601 ) ) ;
#583 = ORIENTED_EDGE ( 'NONE', *, *, #109, .F. ) ;
#584 = DIRECTION ( 'NONE',  ( 0.000000000000000000, 0.000000000000000000, 1.000000000000000000 ) ) ;
#585 = DIRECTION ( 'NONE',  ( -0.000000000000000000, 1.000000000000000000, -0.000000000000000000 ) ) ;
#586 = EDGE_CURVE ( 'NONE', #91, #330, #383, .T. ) ;
#587 = ORIENTED_EDGE ( 'NONE', *, *, #261, .F. ) ;
#588 = DIRECTION ( 'NONE',  ( 1.000000000000000000, 0.000000000000000000, 0.000000000000000000 ) ) ;
#589 = AXIS2_PLACEMENT_3D ( 'NONE', #439, #651, #451 ) ;
#590 = DIRECTION ( 'NONE',  ( 0.000000000000000000, 1.000000000000000000, -0.000000000000000000 ) ) ;
#591 = ORIENTED_EDGE ( 'NONE', *, *, #387, .F. ) ;
#592 = CARTESIAN_POINT ( 'NONE',  ( 145.0000000000000000, 0.4999999999999865663, 0.000000000000000000 ) ) ;
#593 = CARTESIAN_POINT ( 'NONE',  ( 5.750000000000000000, 0.000000000000000000, -95.50000000000001421 ) ) ;
#594 = VERTEX_POINT ( 'NONE', #701 ) ;
#595 = ADVANCED_FACE ( 'NONE', ( #259 ), #59, .T. ) ;
#596 = FACE_OUTER_BOUND ( 'NONE', #395, .T. ) ;
#597 = CARTESIAN_POINT ( 'NONE',  ( 5.750000000000000000, 0.000000000000000000, -97.80000000000001137 ) ) ;
#598 = VERTEX_POINT ( 'NONE', #388 ) ;
#599 = EDGE_CURVE ( 'NONE', #124, #108, #310, .T. ) ;
#600 = CYLINDRICAL_SURFACE ( 'NONE', #481, 2.300000000000010481 ) ;
#601 = CIRCLE ( 'NONE', #712, 3.499999999999989342 ) ;
#602 = FILL_AREA_STYLE ('',( #17 ) ) ;
#603 = VECTOR ( 'NONE', #22, 1000.000000000000000 ) ;
#604 = ORIENTED_EDGE ( 'NONE', *, *, #735, .F. ) ;
#605 = VECTOR ( 'NONE', #107, 1000.000000000000000 ) ;
#606 = APPLICATION_PROTOCOL_DEFINITION ( 'draft international standard', 'automotive_design', 1998, #543 ) ;
#607 = FACE_OUTER_BOUND ( 'NONE', #542, .T. ) ;
#608 = EDGE_LOOP ( 'NONE', ( #629, #526, #446, #243 ) ) ;
#609 = DIRECTION ( 'NONE',  ( 0.000000000000000000, 1.000000000000000000, -0.000000000000000000 ) ) ;
#610 = DIRECTION ( 'NONE',  ( 0.000000000000000000, 1.000000000000000000, -0.000000000000000000 ) ) ;
#611 = EDGE_CURVE ( 'NONE', #29, #410, #566, .T. ) ;
#612 = FACE_BOUND ( 'NONE', #812, .T. ) ;
#613 = ADVANCED_BREP_SHAPE_REPRESENTATION ( 'bottom', ( #265, #713 ), #49 ) ;
#614 = LINE ( 'NONE', #33, #769 ) ;
#615 = DIRECTION ( 'NONE',  ( 0.000000000000000000, 1.000000000000000000, -0.000000000000000000 ) ) ;
#616 = CARTESIAN_POINT ( 'NONE',  ( 5.750000000000000000, 3.500000000000000000, -95.50000000000001421 ) ) ;
#617 = AXIS2_PLACEMENT_3D ( 'NONE', #592, #16, #792 ) ;
#618 = ORIENTED_EDGE ( 'NONE', *, *, #463, .T. ) ;
#619 = CIRCLE ( 'NONE', #340, 3.500000000000003109 ) ;
#620 = AXIS2_PLACEMENT_3D ( 'NONE', #95, #615, #545 ) ;
#621 = CARTESIAN_POINT ( 'NONE',  ( 5.750000000000005329, 0.000000000000000000, -7.999999999999992895 ) ) ;
#622 = LINE ( 'NONE', #234, #513 ) ;
#623 = DIRECTION ( 'NONE',  ( 0.000000000000000000, 1.000000000000000000, 0.000000000000000000 ) ) ;
#624 = ORIENTED_EDGE ( 'NONE', *, *, #132, .T. ) ;
#625 = EDGE_CURVE ( 'NONE', #348, #809, #569, .T. ) ;
#626 = ADVANCED_FACE ( 'NONE', ( #519 ), #244, .F. ) ;
#627 = CARTESIAN_POINT ( 'NONE',  ( 5.750000000000005329, 0.000000000000000000, -1.000000000000006439 ) ) ;
#628 = LINE ( 'NONE', #815, #26 ) ;
#629 = ORIENTED_EDGE ( 'NONE', *, *, #426, .F. ) ;
#630 = DIRECTION ( 'NONE',  ( 0.000000000000000000, 0.000000000000000000, 1.000000000000000000 ) ) ;
#631 = CARTESIAN_POINT ( 'NONE',  ( 139.2499999999999716, 2.000000000000000000, -93.19999999999998863 ) ) ;
#632 = ORIENTED_EDGE ( 'NONE', *, *, #711, .T. ) ;
#633 = CIRCLE ( 'NONE', #12, 3.499999999999989342 ) ;
#634 = DIRECTION ( 'NONE',  ( 0.000000000000000000, 0.000000000000000000, 1.000000000000000000 ) ) ;
#635 = CARTESIAN_POINT ( 'NONE',  ( 0.000000000000000000, 3.500000000000000000, 0.000000000000000000 ) ) ;
#636 = VERTEX_POINT ( 'NONE', #52 ) ;
#637 = CARTESIAN_POINT ( 'NONE',  ( 0.000000000000000000, 3.500000000000000000, -0.5000000000000281997 ) ) ;
#638 = PRODUCT_DEFINITION_CONTEXT ( 'detailed design', #543, 'design' ) ;
#639 = CARTESIAN_POINT ( 'NONE',  ( 5.750000000000000000, 2.000000000000000000, -95.50000000000001421 ) ) ;
#640 = ADVANCED_FACE ( 'NONE', ( #315 ), #832, .F. ) ;
#641 = ORIENTED_EDGE ( 'NONE', *, *, #207, .F. ) ;
#642 = DIRECTION ( 'NONE',  ( 0.000000000000000000, 0.000000000000000000, 1.000000000000000000 ) ) ;
#643 = DIRECTION ( 'NONE',  ( 0.000000000000000000, 0.000000000000000000, 1.000000000000000000 ) ) ;
#644 = EDGE_LOOP ( 'NONE', ( #729, #668, #591, #318 ) ) ;
#645 = VECTOR ( 'NONE', #141, 1000.000000000000000 ) ;
#646 = DIRECTION ( 'NONE',  ( 0.000000000000000000, 0.000000000000000000, 1.000000000000000000 ) ) ;
#647 = AXIS2_PLACEMENT_3D ( 'NONE', #503, #93, #357 ) ;
#648 = DIRECTION ( 'NONE',  ( 0.000000000000000000, 0.000000000000000000, 1.000000000000000000 ) ) ;
#649 = ORIENTED_EDGE ( 'NONE', *, *, #188, .T. ) ;
#650 = EDGE_CURVE ( 'NONE', #108, #799, #721, .T. ) ;
#651 = DIRECTION ( 'NONE',  ( 0.000000000000000000, 0.7071067811865574537, -0.7071067811865376918 ) ) ;
#652 = FACE_OUTER_BOUND ( 'NONE', #355, .T. ) ;
#653 = ORIENTED_EDGE ( 'NONE', *, *, #273, .F. ) ;
#654 = CARTESIAN_POINT ( 'NONE',  ( 139.2499999999999716, 0.000000000000000000, -95.50000000000000000 ) ) ;
#655 = DIRECTION ( 'NONE',  ( 0.000000000000000000, 0.000000000000000000, 1.000000000000000000 ) ) ;
#656 = ORIENTED_EDGE ( 'NONE', *, *, #516, .F. ) ;
#657 = CARTESIAN_POINT ( 'NONE',  ( 0.000000000000000000, 0.000000000000000000, -99.50000000000000000 ) ) ;
#658 = VECTOR ( 'NONE', #400, 1000.000000000000000 ) ;
#659 = CARTESIAN_POINT ( 'NONE',  ( 5.750000000000005329, 3.500000000000000000, -6.800000000000006928 ) ) ;
#660 = CIRCLE ( 'NONE', #103, 2.299999999999996270 ) ;
#661 = VECTOR ( 'NONE', #38, 1000.000000000000000 ) ;
#662 = EDGE_LOOP ( 'NONE', ( #574, #820, #691, #185 ) ) ;
#663 = VERTEX_POINT ( 'NONE', #11 ) ;
#664 = CARTESIAN_POINT ( 'NONE',  ( 5.110978055611270546E-17, 0.4999999999999865663, 2.555489027805705839E-17 ) ) ;
#665 = ORIENTED_EDGE ( 'NONE', *, *, #750, .T. ) ;
#666 = EDGE_CURVE ( 'NONE', #289, #307, #252, .T. ) ;
#667 = LINE ( 'NONE', #349, #645 ) ;
#668 = ORIENTED_EDGE ( 'NONE', *, *, #830, .T. ) ;
#669 = CIRCLE ( 'NONE', #768, 2.300000000000006928 ) ;
#670 = CARTESIAN_POINT ( 'NONE',  ( 5.750000000000005329, 0.000000000000000000, -4.500000000000000000 ) ) ;
#671 = ORIENTED_EDGE ( 'NONE', *, *, #563, .T. ) ;
#672 =( NAMED_UNIT ( * ) SI_UNIT ( $, .STERADIAN. ) SOLID_ANGLE_UNIT ( ) );
#673 = EDGE_CURVE ( 'NONE', #747, #539, #269, .T. ) ;
#674 = LINE ( 'NONE', #805, #78 ) ;
#675 = CARTESIAN_POINT ( 'NONE',  ( 0.000000000000000000, 3.500000000000000000, 0.000000000000000000 ) ) ;
#676 = CARTESIAN_POINT ( 'NONE',  ( 144.4999999999999716, 3.500000000000000000, -99.49999999999997158 ) ) ;
#677 = LINE ( 'NONE', #502, #308 ) ;
#678 = FACE_BOUND ( 'NONE', #710, .T. ) ;
#679 = VERTEX_POINT ( 'NONE', #408 ) ;
#680 = FACE_BOUND ( 'NONE', #72, .T. ) ;
#681 = FACE_OUTER_BOUND ( 'NONE', #220, .T. ) ;
#682 = EDGE_CURVE ( 'NONE', #80, #636, #537, .T. ) ;
#683 = CARTESIAN_POINT ( 'NONE',  ( 5.750000000000000000, 3.500000000000000000, -95.50000000000001421 ) ) ;
#684 = AXIS2_PLACEMENT_3D ( 'NONE', #66, #577, #779 ) ;
#685 = ADVANCED_FACE ( 'NONE', ( #528 ), #412, .T. ) ;
#686 = ORIENTED_EDGE ( 'NONE', *, *, #764, .T. ) ;
#687 = AXIS2_PLACEMENT_3D ( 'NONE', #573, #698, #115 ) ;
#688 = SHAPE_DEFINITION_REPRESENTATION ( #696, #613 ) ;
#689 = DIRECTION ( 'NONE',  ( 1.000000000000000000, 0.000000000000000000, 0.000000000000000000 ) ) ;
#690 = LINE ( 'NONE', #499, #605 ) ;
#691 = ORIENTED_EDGE ( 'NONE', *, *, #353, .T. ) ;
#692 = FACE_OUTER_BOUND ( 'NONE', #699, .T. ) ;
#693 = CYLINDRICAL_SURFACE ( 'NONE', #458, 2.299999999999996270 ) ;
#694 = VERTEX_POINT ( 'NONE', #795 ) ;
#695 = EDGE_CURVE ( 'NONE', #594, #718, #77, .T. ) ;
#696 = PRODUCT_DEFINITION_SHAPE ( 'NONE', 'NONE',  #489 ) ;
#697 = CARTESIAN_POINT ( 'NONE',  ( 145.0000000000000000, 2.999999999999985789, -100.0000000000000000 ) ) ;
#698 = DIRECTION ( 'NONE',  ( 0.000000000000000000, 1.000000000000000000, -0.000000000000000000 ) ) ;
#699 = EDGE_LOOP ( 'NONE', ( #68, #437, #641, #391 ) ) ;
#700 = AXIS2_PLACEMENT_3D ( 'NONE', #173, #609, #300 ) ;
#701 = CARTESIAN_POINT ( 'NONE',  ( 0.5000000000000004441, 0.000000000000000000, -0.5000000000000003331 ) ) ;
#702 = ADVANCED_FACE ( 'NONE', ( #206 ), #467, .F. ) ;
#703 = CARTESIAN_POINT ( 'NONE',  ( 0.000000000000000000, 3.500000000000000000, -0.5000000000000281997 ) ) ;
#704 = ORIENTED_EDGE ( 'NONE', *, *, #57, .F. ) ;
#705 = CYLINDRICAL_SURFACE ( 'NONE', #684, 3.499999999999993339 ) ;
#706 = LINE ( 'NONE', #53, #726 ) ;
#707 = ORIENTED_EDGE ( 'NONE', *, *, #109, .T. ) ;
#708 = DIRECTION ( 'NONE',  ( 0.000000000000000000, 1.000000000000000000, -0.000000000000000000 ) ) ;
#709 = DIRECTION ( 'NONE',  ( -0.000000000000000000, -1.000000000000000000, -0.000000000000000000 ) ) ;
#710 = EDGE_LOOP ( 'NONE', ( #604, #382 ) ) ;
#711 = EDGE_CURVE ( 'NONE', #137, #202, #796, .T. ) ;
#712 = AXIS2_PLACEMENT_3D ( 'NONE', #263, #522, #334 ) ;
#713 = AXIS2_PLACEMENT_3D ( 'NONE', #89, #736, #424 ) ;
#714 = CARTESIAN_POINT ( 'NONE',  ( 0.000000000000000000, 0.4999999999999865663, 0.000000000000000000 ) ) ;
#715 = CIRCLE ( 'NONE', #647, 3.499999999999993339 ) ;
#716 = DIRECTION ( 'NONE',  ( 0.000000000000000000, -0.7071067811865573427, 0.7071067811865378028 ) ) ;
#717 = CIRCLE ( 'NONE', #620, 3.499999999999993339 ) ;
#718 = VERTEX_POINT ( 'NONE', #476 ) ;
#719 = CARTESIAN_POINT ( 'NONE',  ( 5.750000000000000000, 2.000000000000000000, -95.50000000000001421 ) ) ;
#720 = VERTEX_POINT ( 'NONE', #724 ) ;
#721 = LINE ( 'NONE', #136, #658 ) ;
#722 = CARTESIAN_POINT ( 'NONE',  ( 0.3333333333333305393, 0.1666666666666652696, -99.66666666666668561 ) ) ;
#723 = ORIENTED_EDGE ( 'NONE', *, *, #421, .F. ) ;
#724 = CARTESIAN_POINT ( 'NONE',  ( 5.750000000000005329, 3.500000000000000000, -2.199999999999992628 ) ) ;
#725 = SURFACE_STYLE_FILL_AREA ( #602 ) ;
#726 = VECTOR ( 'NONE', #517, 1000.000000000000000 ) ;
#727 = STYLED_ITEM ( 'NONE', ( #793 ), #265 ) ;
#728 = ORIENTED_EDGE ( 'NONE', *, *, #353, .F. ) ;
#729 = ORIENTED_EDGE ( 'NONE', *, *, #421, .T. ) ;
#730 = FACE_OUTER_BOUND ( 'NONE', #662, .T. ) ;
#731 = ORIENTED_EDGE ( 'NONE', *, *, #170, .T. ) ;
#732 = CARTESIAN_POINT ( 'NONE',  ( 5.750000000000005329, 0.000000000000000000, -7.999999999999992895 ) ) ;
#733 = CYLINDRICAL_SURFACE ( 'NONE', #840, 2.300000000000010481 ) ;
#734 = ORIENTED_EDGE ( 'NONE', *, *, #63, .T. ) ;
#735 = EDGE_CURVE ( 'NONE', #44, #150, #266, .T. ) ;
#736 = DIRECTION ( 'NONE',  ( 0.000000000000000000, 0.000000000000000000, 1.000000000000000000 ) ) ;
#737 = DIRECTION ( 'NONE',  ( 0.000000000000000000, 0.000000000000000000, 1.000000000000000000 ) ) ;
#738 = ORIENTED_EDGE ( 'NONE', *, *, #207, .T. ) ;
#739 = CARTESIAN_POINT ( 'NONE',  ( 145.0000000000000000, 2.999999999999985789, -100.0000000000000000 ) ) ;
#740 = LINE ( 'NONE', #158, #523 ) ;
#741 = CARTESIAN_POINT ( 'NONE',  ( 5.750000000000005329, 0.000000000000000000, -1.000000000000006439 ) ) ;
#742 = ORIENTED_EDGE ( 'NONE', *, *, #830, .F. ) ;
#743 = APPLICATION_PROTOCOL_DEFINITION ( 'draft international standard', 'automotive_design', 1998, #445 ) ;
#744 = DIRECTION ( 'NONE',  ( -0.000000000000000000, 1.000000000000000000, -0.000000000000000000 ) ) ;
#745 = EDGE_CURVE ( 'NONE', #202, #663, #667, .T. ) ;
#746 = CARTESIAN_POINT ( 'NONE',  ( 5.750000000000000000, 2.000000000000000000, -97.80000000000001137 ) ) ;
#747 = VERTEX_POINT ( 'NONE', #6 ) ;
#748 = PLANE ( 'NONE',  #483 ) ;
#749 = DIRECTION ( 'NONE',  ( 0.000000000000000000, 0.000000000000000000, 1.000000000000000000 ) ) ;
#750 = EDGE_CURVE ( 'NONE', #809, #799, #341, .T. ) ;
#751 = ADVANCED_FACE ( 'NONE', ( #596 ), #600, .F. ) ;
#752 = LINE ( 'NONE', #168, #169 ) ;
#753 = VECTOR ( 'NONE', #3, 1000.000000000000114 ) ;
#754 = ORIENTED_EDGE ( 'NONE', *, *, #215, .T. ) ;
#755 = AXIS2_PLACEMENT_3D ( 'NONE', #257, #716, #780 ) ;
#756 = PRESENTATION_LAYER_ASSIGNMENT (  '', '', ( #727 ) ) ;
#757 = CARTESIAN_POINT ( 'NONE',  ( 0.000000000000000000, 0.000000000000000000, 0.000000000000000000 ) ) ;
#758 = FACE_OUTER_BOUND ( 'NONE', #362, .T. ) ;
#759 = EDGE_CURVE ( 'NONE', #378, #20, #496, .T. ) ;
#760 = ORIENTED_EDGE ( 'NONE', *, *, #57, .T. ) ;
#761 = CARTESIAN_POINT ( 'NONE',  ( 5.750000000000005329, 0.000000000000000000, -4.500000000000000000 ) ) ;
#762 = LINE ( 'NONE', #48, #578 ) ;
#763 = ORIENTED_EDGE ( 'NONE', *, *, #24, .F. ) ;
#764 = EDGE_CURVE ( 'NONE', #837, #228, #472, .T. ) ;
#765 = CARTESIAN_POINT ( 'NONE',  ( 5.750000000000005329, 0.000000000000000000, -6.800000000000006928 ) ) ;
#766 = DIRECTION ( 'NONE',  ( 0.000000000000000000, 0.000000000000000000, -1.000000000000000000 ) ) ;
#767 = ORIENTED_EDGE ( 'NONE', *, *, #170, .F. ) ;
#768 = AXIS2_PLACEMENT_3D ( 'NONE', #369, #610, #737 ) ;
#769 = VECTOR ( 'NONE', #225, 1000.000000000000000 ) ;
#770 = CIRCLE ( 'NONE', #687, 2.300000000000006928 ) ;
#771 = VECTOR ( 'NONE', #350, 1000.000000000000114 ) ;
#772 = DIRECTION ( 'NONE',  ( 0.000000000000000000, 1.000000000000000000, -0.000000000000000000 ) ) ;
#773 = CARTESIAN_POINT ( 'NONE',  ( 145.0000000000000000, 2.999999999999985789, 0.000000000000000000 ) ) ;
#774 = EDGE_LOOP ( 'NONE', ( #441, #686, #343, #434 ) ) ;
#775 = CARTESIAN_POINT ( 'NONE',  ( 0.000000000000000000, 2.999999999999985789, 0.000000000000000000 ) ) ;
#776 = CARTESIAN_POINT ( 'NONE',  ( 0.000000000000000000, 2.999999999999985789, 0.000000000000000000 ) ) ;
#777 = ADVANCED_FACE ( 'NONE', ( #730 ), #145, .F. ) ;
#778 = ORIENTED_EDGE ( 'NONE', *, *, #438, .F. ) ;
#779 = DIRECTION ( 'NONE',  ( 0.000000000000000000, 0.000000000000000000, 1.000000000000000000 ) ) ;
#780 = DIRECTION ( 'NONE',  ( -1.000000000000000000, 0.000000000000000000, 0.000000000000000000 ) ) ;
#781 = ORIENTED_EDGE ( 'NONE', *, *, #426, .T. ) ;
#782 = VECTOR ( 'NONE', #689, 1000.000000000000000 ) ;
#783 = DIRECTION ( 'NONE',  ( 0.000000000000000000, 1.000000000000000000, -0.000000000000000000 ) ) ;
#784 = AXIS2_PLACEMENT_3D ( 'NONE', #683, #623, #306 ) ;
#785 = FACE_BOUND ( 'NONE', #127, .T. ) ;
#786 = ORIENTED_EDGE ( 'NONE', *, *, #666, .T. ) ;
#787 = EDGE_CURVE ( 'NONE', #202, #137, #601, .T. ) ;
#788 = CARTESIAN_POINT ( 'NONE',  ( 139.2499999999999716, 3.500000000000000000, -95.50000000000000000 ) ) ;
#789 = DIRECTION ( 'NONE',  ( 0.000000000000000000, 0.000000000000000000, 1.000000000000000000 ) ) ;
#790 = ORIENTED_EDGE ( 'NONE', *, *, #118, .F. ) ;
#791 = EDGE_CURVE ( 'NONE', #348, #314, #464, .T. ) ;
#792 = DIRECTION ( 'NONE',  ( 0.000000000000000000, 0.000000000000000000, 1.000000000000000000 ) ) ;
#793 = PRESENTATION_STYLE_ASSIGNMENT (( #473 ) ) ;
#794 = VERTEX_POINT ( 'NONE', #165 ) ;
#795 = CARTESIAN_POINT ( 'NONE',  ( 5.750000000000000000, 3.500000000000000000, -97.80000000000001137 ) ) ;
#796 = CIRCLE ( 'NONE', #152, 3.499999999999989342 ) ;
#797 = DIRECTION ( 'NONE',  ( 0.000000000000000000, 0.000000000000000000, 1.000000000000000000 ) ) ;
#798 = AXIS2_PLACEMENT_3D ( 'NONE', #670, #146, #468 ) ;
#799 = VERTEX_POINT ( 'NONE', #676 ) ;
#800 = DIRECTION ( 'NONE',  ( 0.000000000000000000, 0.000000000000000000, -1.000000000000000000 ) ) ;
#801 = DIRECTION ( 'NONE',  ( 0.000000000000000000, 0.000000000000000000, 1.000000000000000000 ) ) ;
#802 = EDGE_CURVE ( 'NONE', #636, #80, #198, .T. ) ;
#803 = ORIENTED_EDGE ( 'NONE', *, *, #516, .T. ) ;
#804 = PLANE ( 'NONE',  #309 ) ;
#805 = CARTESIAN_POINT ( 'NONE',  ( 145.0000000000000000, 3.500000000000000000, -100.0000000000000000 ) ) ;
#806 = ORIENTED_EDGE ( 'NONE', *, *, #586, .F. ) ;
#807 = CIRCLE ( 'NONE', #62, 2.300000000000010481 ) ;
#808 = CARTESIAN_POINT ( 'NONE',  ( 145.0000000000000000, 0.4999999999999865663, 0.000000000000000000 ) ) ;
#809 = VERTEX_POINT ( 'NONE', #739 ) ;
#810 = VECTOR ( 'NONE', #766, 1000.000000000000000 ) ;
#811 = VECTOR ( 'NONE', #824, 1000.000000000000000 ) ;
#812 = EDGE_LOOP ( 'NONE', ( #571, #219 ) ) ;
#813 = ADVANCED_FACE ( 'NONE', ( #153 ), #748, .T. ) ;
#814 = CARTESIAN_POINT ( 'NONE',  ( 5.750000000000000000, 0.000000000000000000, -99.00000000000001421 ) ) ;
#815 = CARTESIAN_POINT ( 'NONE',  ( 0.000000000000000000, 2.999999999999985789, 0.000000000000000000 ) ) ;
#816 = ORIENTED_EDGE ( 'NONE', *, *, #402, .F. ) ;
#817 = ADVANCED_FACE ( 'NONE', ( #680, #419 ), #804, .F. ) ;
#818 = FACE_BOUND ( 'NONE', #495, .T. ) ;
#819 = LINE ( 'NONE', #126, #525 ) ;
#820 = ORIENTED_EDGE ( 'NONE', *, *, #484, .F. ) ;
#821 = PRODUCT ( 'bottom', 'bottom', '', ( #99 ) ) ;
#822 = DIRECTION ( 'NONE',  ( -0.000000000000000000, 1.000000000000000000, -0.000000000000000000 ) ) ;
#823 = VECTOR ( 'NONE', #547, 1000.000000000000000 ) ;
#824 = DIRECTION ( 'NONE',  ( -0.000000000000000000, 1.000000000000000000, -0.000000000000000000 ) ) ;
#825 = CIRCLE ( 'NONE', #139, 3.499999999999993339 ) ;
#826 = ORIENTED_EDGE ( 'NONE', *, *, #551, .T. ) ;
#827 = VECTOR ( 'NONE', #298, 1000.000000000000000 ) ;
#828 = DIRECTION ( 'NONE',  ( 1.000000000000000000, 0.000000000000000000, 0.000000000000000000 ) ) ;
#829 = CARTESIAN_POINT ( 'NONE',  ( 5.750000000000005329, 2.000000000000000000, -6.800000000000006928 ) ) ;
#830 = EDGE_CURVE ( 'NONE', #410, #679, #614, .T. ) ;
#831 = ORIENTED_EDGE ( 'NONE', *, *, #839, .F. ) ;
#832 = CYLINDRICAL_SURFACE ( 'NONE', #576, 2.299999999999996270 ) ;
#833 = CARTESIAN_POINT ( 'NONE',  ( 139.2499999999999716, 0.000000000000000000, -98.99999999999998579 ) ) ;
#834 = ORIENTED_EDGE ( 'NONE', *, *, #625, .F. ) ;
#835 = CARTESIAN_POINT ( 'NONE',  ( 5.750000000000005329, 2.000000000000000000, -4.500000000000000000 ) ) ;
#836 = CARTESIAN_POINT ( 'NONE',  ( 0.5000000000000281997, 3.500000000000000000, -0.5000000000000281997 ) ) ;
#837 = VERTEX_POINT ( 'NONE', #621 ) ;
#838 = CIRCLE ( 'NONE', #88, 3.499999999999993339 ) ;
#839 = EDGE_CURVE ( 'NONE', #598, #228, #825, .T. ) ;
#840 = AXIS2_PLACEMENT_3D ( 'NONE', #278, #149, #801 ) ;
#841 = CARTESIAN_POINT ( 'NONE',  ( 0.000000000000000000, 0.000000000000000000, -0.5000000000000003331 ) ) ;
ENDSEC;
END-ISO-10303-21;
